<?xml version="1.0" standalone="no"?><!DOCTYPE svg PUBLIC "-//W3C//DTD SVG 1.1//EN" "http://www.w3.org/Graphics/SVG/1.1/DTD/svg11.dtd"><svg t="1527134263614" class="icon" style="" viewBox="0 0 1024 1024" version="1.1" xmlns="http://www.w3.org/2000/svg" p-id="9063" xmlns:xlink="http://www.w3.org/1999/xlink" width="32" height="32"><defs><style type="text/css"></style></defs><path d="M948.313043 149.860174C799.877565-16.384 663.373913 25.199304 556.521739 132.051478 495.259826 89.043478 440.05287 82.276174 392.770783 94.029913L397.757217 0 4.452174 96.434087 117.270261 930.504348 144.606609 930.504348 148.435478 792.486957 168.025043 930.504348 348.783304 930.504348 375.496348 418.415304C384.400696 411.202783 403.72313 400.072348 427.586783 420.641391 444.861217 443.169391 451.005217 494.191304 451.005217 494.191304L629.092174 507.547826C629.092174 507.547826 615.735652 381.373217 669.161739 387.33913 776.013913 393.305043 621.701565 945.374609 621.701565 945.374609L954.10087 1022.575304C954.10087 1022.575304 1096.748522 316.104348 948.313043 149.860174L948.313043 149.860174ZM798.096696 516.452174C796.048696 540.493913 793.021217 564.268522 789.192348 587.686957 785.363478 611.105391 780.288 633.455304 775.123478 655.181913 769.958957 676.908522 764.260174 697.655652 758.472348 717.512348 752.684522 737.369043 746.718609 755.44487 740.663652 772.185043 729.088 805.843478 717.868522 833.26887 709.676522 852.324174 701.484522 871.379478 696.05287 881.530435 696.05287 881.530435L720.985043 766.308174 732.471652 710.656C736.478609 690.977391 740.218435 670.052174 744.225391 648.325565 748.232348 626.598957 751.437913 604.516174 754.821565 581.89913 758.205217 559.282087 760.876522 536.30887 762.568348 513.335652 764.57251 490.688211 765.345358 467.948646 764.883478 445.217391 764.639784 423.810328 762.072154 402.493022 757.225739 381.640348 753.169845 363.193922 744.56894 346.053327 732.204522 331.776 720.832727 319.26431 706.593577 309.700246 690.710261 303.905391 677.072966 299.781819 662.421612 300.569526 649.305043 306.131478 638.472115 310.856758 628.48589 317.323741 619.742609 325.275826 613.884599 330.548939 608.409425 336.232407 603.358609 342.28313 599.885913 346.557217 598.105043 348.961391 598.105043 348.961391 599.151064 346.287531 600.340025 343.671817 601.666783 341.125565 605.305615 333.893077 609.597536 327.008122 614.489043 320.556522 622.245919 309.928512 631.944249 300.864652 643.072 293.843478 650.355966 289.651021 658.2611 286.645266 666.490435 284.93913 675.954439 282.89688 685.728796 282.745574 695.251478 284.493913 705.453076 286.394335 715.302954 289.847799 724.457739 294.733913 734.038171 299.975562 742.998815 306.277882 751.170783 313.522087 753.129739 315.392 754.732522 316.549565 756.958609 319.042783 759.184696 321.536 761.410783 323.762087 763.102609 326.077217 766.836358 330.723244 770.228877 335.633468 773.253565 340.769391 779.21742 351.111193 783.968137 362.106564 787.411478 373.537391 794.363575 396.690406 798.40168 420.619918 799.432348 444.772174 800.572955 468.668751 800.126758 492.614678 798.096696 516.452174L798.096696 516.452174Z" p-id="9064" fill="#000000"></path></svg>